<svg width="138" height="48" viewBox="0 0 138 48" fill="none" xmlns="http://www.w3.org/2000/svg">
<path fill-rule="evenodd" clip-rule="evenodd" d="M18.1199 10.6102L10.6901 11.9521C10.3242 8.54799 10.9854 3.65843 14.6937 2.68242C12.5759 4.20286 11.7066 6.01604 11.7066 7.9009C16.5399 7.33685 17.0791 3.94217 17.5134 1.20733C17.5805 0.784849 17.6451 0.378118 17.7227 0C14.171 0.218059 9.89345 0.654178 9.45733 6.88827C7.93689 4.20585 5.18278 3.55466 1.55643 4.35222C1.63974 4.58364 1.719 4.81672 1.798 5.04905L1.79801 5.04909C2.61131 7.44078 3.39762 9.75313 8.29833 9.35563C7.8822 7.34905 6.54409 6.53096 5.6049 5.95677C5.55981 5.9292 5.51564 5.90219 5.47253 5.87564C7.38059 6.34424 9.67086 8.09913 9.22107 12.2174L1.82826 13.5525C1.24614 13.6621 0.730999 13.9975 0.395231 14.4855C0.0594633 14.9735 -0.0696739 15.5744 0.0359907 16.1573L5.44564 46.1718C5.55524 46.7539 5.89062 47.269 6.37861 47.6048C6.86659 47.9405 7.46756 48.0697 8.0504 47.964L24.3421 45.0217C24.9227 44.9154 25.4379 44.5845 25.7762 44.1009C26.1145 43.6172 26.2485 43.0197 26.1493 42.4379L20.7247 12.4025C20.6151 11.8204 20.2797 11.3052 19.7917 10.9695C19.3038 10.6337 18.7028 10.5046 18.1199 10.6102ZM18.2335 44.6513L13.8364 45.3951C13.7515 45.4096 13.6645 45.4073 13.5805 45.3882C13.4965 45.3691 13.4171 45.3336 13.3468 45.2838C13.2765 45.2341 13.2166 45.1709 13.1707 45.098C13.1248 45.0251 13.0937 44.9438 13.0792 44.8589C13.0647 44.774 13.067 44.687 13.0861 44.603C13.1052 44.519 13.1407 44.4396 13.1905 44.3693C13.2403 44.2989 13.3034 44.2391 13.3763 44.1932C13.4492 44.1473 13.5305 44.1162 13.6154 44.1017L18.0035 43.3549C18.0884 43.3404 18.1753 43.3427 18.2593 43.3618C18.3434 43.3809 18.4228 43.4164 18.4931 43.4662C18.5634 43.516 18.6233 43.5791 18.6692 43.652C18.7151 43.7249 18.7462 43.8062 18.7607 43.8911C18.7752 43.976 18.7728 44.063 18.7537 44.147C18.7347 44.231 18.6992 44.3104 18.6494 44.3808C18.5996 44.4511 18.5365 44.5109 18.4636 44.5568C18.3907 44.6027 18.3094 44.6338 18.2245 44.6483L18.2335 44.6513ZM23.3384 40.8696L7.52467 43.7253C7.3084 43.7569 7.08843 43.7014 6.9131 43.5709C6.73778 43.4404 6.62146 43.2456 6.58971 43.0293L1.94774 17.3402C1.90158 17.1267 1.94202 16.9036 2.06019 16.7199C2.17836 16.5362 2.3646 16.4069 2.57802 16.3604L18.3918 13.5047C18.608 13.4731 18.828 13.5287 19.0033 13.6592C19.1787 13.7897 19.295 13.9845 19.3267 14.2007L23.9687 39.8899C24.0141 40.1025 23.9736 40.3244 23.8561 40.5074C23.7386 40.6903 23.5536 40.8194 23.3414 40.8666L23.3384 40.8696ZM10.004 32.6103C10.2376 32.5681 10.445 32.4348 10.5805 32.2399L14.0575 27.2305C14.1933 27.0348 14.2459 26.7932 14.2036 26.5587C14.1613 26.3243 14.0276 26.1162 13.8319 25.9804C13.6363 25.8445 13.3946 25.7919 13.1602 25.8342C12.9257 25.8765 12.7177 26.0102 12.5818 26.2059L9.10484 31.2153C9.00299 31.3609 8.94674 31.5336 8.94325 31.7113C8.93976 31.889 8.98919 32.0637 9.08525 32.2132C9.1813 32.3627 9.31965 32.4803 9.48271 32.551C9.64577 32.6217 9.82617 32.6424 10.001 32.6103H10.004ZM14.7043 31.594C14.589 31.569 14.4799 31.5215 14.3831 31.4543L14.386 31.4393C14.289 31.3724 14.2062 31.2869 14.1422 31.1879C14.0783 31.0888 14.0345 30.9781 14.0134 30.8621C13.9923 30.7461 13.9943 30.6271 14.0193 30.5119C14.0443 30.3967 14.0918 30.2875 14.159 30.1907L15.5421 28.2073C15.6093 28.1104 15.695 28.0277 15.7943 27.9639C15.8935 27.9001 16.0043 27.8565 16.1204 27.8356C16.2365 27.8147 16.3556 27.8168 16.4708 27.8419C16.5861 27.8669 16.6953 27.9145 16.7922 27.9817C16.8891 28.049 16.9717 28.1347 17.0355 28.2339C17.0993 28.3332 17.1429 28.444 17.1638 28.5601C17.1848 28.6762 17.1826 28.7952 17.1576 28.9105C17.1325 29.0258 17.085 29.135 17.0177 29.2318L15.6317 31.2272C15.5647 31.3243 15.4792 31.4071 15.3802 31.4711C15.2812 31.535 15.1705 31.5788 15.0545 31.5999C14.9385 31.6209 14.8195 31.6189 14.7043 31.594ZM77.0884 16.1513V36.1649H72.7213V16.1513H77.0884ZM46.5722 17.9854H39.5256V36.1679H47.1427C48.0226 36.1794 48.8996 36.0657 49.7475 35.8304C50.4657 35.6326 51.135 35.2878 51.713 34.8177C52.2525 34.366 52.6817 33.7969 52.9676 33.1539C53.276 32.4386 53.4278 31.6655 53.4126 30.8867C53.4155 30.3657 53.3503 29.8465 53.2185 29.3424C53.0942 28.87 52.8769 28.4272 52.5792 28.04C52.2634 27.6389 51.869 27.3065 51.4202 27.0632C50.8813 26.7733 50.2994 26.5716 49.6967 26.4658C50.3197 26.094 50.8346 25.5657 51.1902 24.9334C51.5437 24.2272 51.7142 23.4435 51.6861 22.6542C51.6861 21.1348 51.252 19.9768 50.3837 19.1802C49.5155 18.3836 48.2449 17.9854 46.5722 17.9854ZM45.1234 25.1275H44.2542V21.6057H45.1234C46.603 21.6077 47.3428 22.1952 47.3428 23.3681C47.3428 24.5411 46.603 25.1275 45.1234 25.1275ZM45.2907 32.5117H44.2542V28.6523H45.2907C46.4796 28.6523 47.3319 28.8047 47.8476 29.1094C48.0849 29.2744 48.2787 29.4944 48.4125 29.7506C48.5463 30.0068 48.6162 30.2915 48.6162 30.5805C48.6162 30.8695 48.5463 31.1543 48.4125 31.4104C48.2787 31.6666 48.0849 31.8866 47.8476 32.0517C47.3379 32.3583 46.4855 32.5117 45.2907 32.5117ZM69.7521 23.7983H65.3611V25.029C64.8727 24.5028 64.2777 24.087 63.6157 23.8094C62.9538 23.5317 62.2402 23.3986 61.5226 23.4189C60.6585 23.4086 59.8024 23.586 59.0135 23.9387C58.2743 24.2728 57.6099 24.7523 57.0599 25.3486C56.5046 25.9579 56.0707 26.6676 55.7814 27.4396C55.4748 28.2445 55.3198 29.0993 55.3244 29.9607C55.3157 30.8587 55.4758 31.7504 55.7963 32.5893C56.0944 33.3652 56.5408 34.0754 57.1107 34.6803C57.6686 35.2721 58.3415 35.7438 59.0881 36.0663C59.8731 36.4025 60.7195 36.5714 61.5734 36.5622C62.299 36.59 63.0208 36.445 63.6793 36.1391C64.3379 35.8332 64.9143 35.3752 65.3611 34.8028V36.1769H69.7521V23.7983ZM60.6683 31.98C60.1435 31.4359 59.8528 30.7077 59.8588 29.9517H59.8618C59.8569 29.5856 59.9281 29.2225 60.0709 28.8853C60.2157 28.5582 60.418 28.2597 60.6683 28.0041C60.923 27.7457 61.228 27.5424 61.5644 27.4067C61.9205 27.2598 62.3024 27.1856 62.6876 27.1886C63.0639 27.1876 63.4366 27.2618 63.7839 27.4067C64.1202 27.5426 64.4252 27.7459 64.68 28.0041C64.9301 28.2656 65.1323 28.5689 65.2774 28.9003C65.4306 29.2464 65.509 29.621 65.5074 29.9995C65.5094 30.3733 65.4309 30.7431 65.2774 31.0838C65.1316 31.4149 64.9295 31.7181 64.68 31.98C64.4254 32.2384 64.1204 32.4418 63.7839 32.5774C63.4368 32.7228 63.0639 32.797 62.6876 32.7955C62.3024 32.799 61.9204 32.7248 61.5644 32.5774C61.2278 32.442 60.9228 32.2386 60.6683 31.98ZM80.1532 27.3111C79.7809 28.116 79.5912 28.9933 79.5976 29.88C79.5845 30.8278 79.7729 31.7676 80.1502 32.6371C80.5072 33.4477 81.0291 34.1751 81.6826 34.7729C82.3595 35.3822 83.1518 35.8494 84.0126 36.147C84.9583 36.4754 85.9537 36.6381 86.9548 36.6279C87.9771 36.6336 88.993 36.467 89.9599 36.135C90.839 35.8442 91.6514 35.3812 92.3496 34.7729C93.0066 34.1904 93.5364 33.4786 93.9059 32.6819C94.2905 31.8385 94.4843 30.9205 94.4734 29.9936C94.4843 29.0678 94.2948 28.1507 93.9178 27.3052C93.5538 26.5053 93.0232 25.7924 92.3615 25.2142C91.6665 24.6105 90.8639 24.1433 89.9957 23.8371C89.0465 23.5003 88.0456 23.3325 87.0385 23.3413C86.0204 23.3298 85.0085 23.5019 84.0514 23.8491C83.1869 24.1595 82.3884 24.6297 81.6975 25.2351C81.0448 25.8129 80.519 26.5198 80.1532 27.3111ZM84.4367 31.0749C84.28 30.713 84.2016 30.3221 84.2067 29.9278C84.2063 29.5581 84.2847 29.1925 84.4367 28.8555C84.5822 28.5243 84.7844 28.221 85.0341 27.9593C85.2888 27.7009 85.5938 27.4976 85.9303 27.3619C86.6333 27.0716 87.4227 27.0716 88.1258 27.3619C88.4622 27.4977 88.7672 27.701 89.0219 27.9593C89.2721 28.2207 89.4743 28.524 89.6194 28.8555C89.7721 29.2007 89.8505 29.5742 89.8494 29.9517C89.8527 30.3381 89.7743 30.7209 89.6194 31.0749C89.4743 31.4063 89.2721 31.7097 89.0219 31.971C88.7673 32.2295 88.4623 32.4328 88.1258 32.5684C87.4227 32.8587 86.6333 32.8587 85.9303 32.5684C85.5937 32.4329 85.2887 32.2295 85.0341 31.971C84.7837 31.7099 84.5814 31.4065 84.4367 31.0749ZM96.4867 29.88C96.4803 28.9933 96.6701 28.116 97.0423 27.3111C97.4081 26.5198 97.9339 25.8129 98.5867 25.2351C99.2775 24.6297 100.076 24.1595 100.941 23.8491C101.898 23.5019 102.91 23.3298 103.928 23.3413C104.935 23.3325 105.936 23.5003 106.885 23.8371C107.753 24.1433 108.556 24.6105 109.251 25.2142C109.912 25.7924 110.443 26.5053 110.807 27.3052C111.184 28.1507 111.373 29.0678 111.363 29.9936C111.373 30.9205 111.18 31.8385 110.795 32.6819C110.426 33.4786 109.896 34.1904 109.239 34.7729C108.54 35.3812 107.728 35.8442 106.849 36.135C105.882 36.467 104.866 36.6336 103.844 36.6279C102.843 36.6381 101.847 36.4754 100.902 36.147C100.041 35.8494 99.2486 35.3822 98.5717 34.7729C97.9182 34.1751 97.3964 33.4477 97.0393 32.6371C96.662 31.7676 96.4737 30.8278 96.4867 29.88ZM101.096 29.9278C101.091 30.3221 101.169 30.713 101.326 31.0749C101.471 31.4065 101.673 31.7099 101.923 31.971C102.178 32.2295 102.483 32.4329 102.819 32.5684C103.522 32.8587 104.312 32.8587 105.015 32.5684C105.351 32.4328 105.656 32.2295 105.911 31.971C106.161 31.7097 106.363 31.4063 106.508 31.0749C106.663 30.7209 106.742 30.3381 106.738 29.9517C106.74 29.5742 106.661 29.2007 106.508 28.8555C106.363 28.524 106.161 28.2207 105.911 27.9593C105.656 27.701 105.351 27.4977 105.015 27.3619C104.312 27.0716 103.522 27.0716 102.819 27.3619C102.483 27.4976 102.178 27.7009 101.923 27.9593C101.674 28.221 101.471 28.5243 101.326 28.8555C101.173 29.1923 101.093 29.5579 101.093 29.9278H101.096ZM118.803 36.1769V27.4426L121.289 27.4456V23.8013H118.803V20.0853H114.436V23.7983H112.988V27.4426H114.436V36.1769H118.803ZM132.723 23.7983H137.114V36.1769H132.723V34.8028C132.277 35.3752 131.7 35.8332 131.042 36.1391C130.383 36.445 129.661 36.59 128.936 36.5622C128.082 36.5715 127.235 36.4026 126.45 36.0664C125.704 35.7438 125.031 35.2721 124.473 34.6804C123.903 34.0754 123.457 33.3652 123.159 32.5894C122.838 31.7505 122.678 30.8588 122.687 29.9607C122.682 29.0993 122.837 28.2446 123.144 27.4396C123.433 26.6676 123.867 25.958 124.422 25.3486C124.972 24.7522 125.636 24.2727 126.376 23.9387C127.165 23.586 128.021 23.4087 128.885 23.4189C129.602 23.3996 130.316 23.5338 130.977 23.8125C131.639 24.0912 132.233 24.508 132.72 25.035L132.723 23.7983ZM127.221 29.9517C127.215 30.7077 127.506 31.4357 128.031 31.98C128.285 32.2388 128.59 32.4422 128.927 32.5774C129.283 32.7247 129.665 32.7988 130.05 32.7955C130.427 32.7974 130.801 32.7232 131.149 32.5774C131.486 32.4419 131.791 32.2385 132.045 31.98C132.295 31.7182 132.497 31.415 132.643 31.0839C132.796 30.7431 132.875 30.3733 132.873 29.9995C132.874 29.621 132.796 29.2464 132.643 28.9003C132.498 28.5688 132.296 28.2655 132.045 28.0042C131.791 27.7458 131.486 27.5425 131.149 27.4067C130.801 27.2613 130.427 27.1872 130.05 27.1887C129.665 27.1857 129.283 27.2599 128.927 27.4067C128.59 27.5422 128.285 27.7456 128.031 28.0042C127.78 28.2595 127.578 28.558 127.433 28.8853C127.289 29.2222 127.217 29.5854 127.221 29.9517Z" fill="black"/>
</svg>
